<svg width="409" height="72" viewBox="0 0 409 72" fill="none" xmlns="http://www.w3.org/2000/svg">
<path d="M309.5 20.3H271.5L262.2 7.79999H309.5V20.3Z" fill="#00B5E2"/>
<path d="M309.4 30.2H271.5V42.6H309.4V30.2Z" fill="#00B5E2"/>
<path d="M309.5 65.9H262.2L271.5 53.4H309.5V65.9Z" fill="#00B5E2"/>
<path d="M8.3 6.10001H22.5L38.2 31.4L53.9 6.10001H68V65.9H55V26.9L38.2 52.4H37.9L21.2 27.1V65.9H8.3V6.10001Z" fill="#003E51"/>
<path d="M120 5.70001H132.1L157.7 65.9H144L138.5 52.5H113.2L107.7 65.9H94.3L120 5.70001ZM133.8 40.8L125.9 21.4L118 40.8H133.8Z" fill="#003E51"/>
<path d="M198.6 35.5L178.6 6.10001H194L206.6 25.5L219.2 6.10001H234.1L214.1 35.3L235 65.9H219.6L206.2 45.4L192.7 65.9H177.8L198.6 35.5Z" fill="#003E51"/>
<path d="M347.3 6.10001H359.4L387.4 42.9V6.10001H400.4V65.9H389.2L360.3 27.9V65.9H347.3V6.10001Z" fill="#003E51"/>
</svg>
